# xmcd
#
# Track frame offsets:
#	188
#	74963
#	107663
#	154220
#	242813
#
# Disc length: 4727 seconds
#
# Revision: 0
# Processed by: cddbd v1.5.2PL0 Copyright (c) Steve Scherf et al.
# Submitted via: audiograbber 1.83.01
#
DISCID=46127505
DTITLE=Gustav Mahler - Gustav Mahler Sinfonien
DYEAR=1987
DGENRE=Classical
TTITLE0=Sinfonie Nr. 1 D-Dur "Der Titan" langsam.schleppend.wie ein Naturlaut
TTITLE1=Sinfonie Nr. 1 D-Dur "Der Titan" kräftig bewegt,doch nicht zu schnell
TTITLE2=Sinfonie Nr. 1 D-Dur "Der Titan" feierlich und gemessen, ohne zu schlep
TTITLE2=pen
TTITLE3=Sinfonie Nr. 1 D-Dur "Der Titan" stürmisch bewegt
TTITLE4=Sinfonie Nr. 10 D-Dur "Die Unvollendete" adagio
EXTD=
EXTT0=
EXTT1=
EXTT2=
EXTT3=
EXTT4=
PLAYORDER=
